<svg width="193" height="32" viewBox="0 0 193 32" fill="none" xmlns="http://www.w3.org/2000/svg">
<path d="M26 0H6C2.68629 0 0 2.68629 0 6V26C0 29.3137 2.68629 32 6 32H26C29.3137 32 32 29.3137 32 26V6C32 2.68629 29.3137 0 26 0Z" fill="#2196F3"/>
<path fill-rule="evenodd" clip-rule="evenodd" d="M19.5942 7.46942C19.5942 9.38553 17.9851 10.9388 16.0001 10.9388C14.0151 10.9388 12.4059 9.38553 12.4059 7.46942C12.4059 5.55331 14.0151 4 16.0001 4C17.9851 4 19.5942 5.55331 19.5942 7.46942ZM15.9356 12.8618C19.7156 12.8618 20 15.9606 20 16.662C20 18.9837 19.1584 23.8715 16.19 27.8852C16.1368 27.9571 16.0498 28 15.9581 28H12.7944C12.5719 28 12.4364 27.7628 12.556 27.5813C14.382 24.8089 15.3225 22.4884 15.7814 20.4655L15.7828 20.4597C15.4706 20.4495 15.157 20.4065 14.8508 20.3283C13.3311 19.9468 12 18.7465 12 16.662C12 14.0877 14.0306 12.8618 15.9356 12.8618Z" fill="white"/>
<path d="M49.3239 24.6908C52.0839 24.6908 54.4359 23.7068 55.9959 21.8828L53.9799 19.9628C52.7559 21.3068 51.2439 21.9548 49.4919 21.9548C46.0119 21.9548 43.4919 19.5068 43.4919 16.0508C43.4919 12.5948 46.0119 10.1468 49.4919 10.1468C51.2439 10.1468 52.7559 10.7948 53.9799 12.1148L55.9959 10.2188C54.4359 8.39477 52.0839 7.41077 49.3479 7.41077C44.1879 7.41077 40.3479 11.0348 40.3479 16.0508C40.3479 21.0668 44.1879 24.6908 49.3239 24.6908Z" fill="#2196F3"/>
<path d="M63.8686 24.6188C67.8526 24.6188 70.7086 21.8828 70.7086 18.0428C70.7086 14.2028 67.8526 11.4908 63.8686 11.4908C59.9326 11.4908 57.0526 14.2028 57.0526 18.0428C57.0526 21.8828 59.9326 24.6188 63.8686 24.6188ZM63.8686 22.0508C61.7086 22.0508 60.0766 20.4908 60.0766 18.0428C60.0766 15.5948 61.7086 14.0348 63.8686 14.0348C66.0526 14.0348 67.6846 15.5948 67.6846 18.0428C67.6846 20.4908 66.0526 22.0508 63.8686 22.0508Z" fill="#2196F3"/>
<path d="M83.0094 6.64277V13.2188C82.0014 12.0428 80.5374 11.4908 78.8814 11.4908C75.1614 11.4908 72.4014 14.0588 72.4014 18.0428C72.4014 22.0268 75.1614 24.6188 78.8814 24.6188C80.6334 24.6188 82.1214 24.0188 83.1294 22.7948V24.4508H86.0094V6.64277H83.0094ZM79.2414 22.0508C77.0814 22.0508 75.4254 20.4908 75.4254 18.0428C75.4254 15.5948 77.0814 14.0348 79.2414 14.0348C81.4014 14.0348 83.0574 15.5948 83.0574 18.0428C83.0574 20.4908 81.4014 22.0508 79.2414 22.0508Z" fill="#2196F3"/>
<path d="M91.3259 9.52277C92.4539 9.52277 93.2459 8.70678 93.2459 7.65077C93.2459 6.66677 92.4299 5.92278 91.3259 5.92278C90.2219 5.92278 89.4059 6.71478 89.4059 7.72277C89.4059 8.73077 90.2219 9.52277 91.3259 9.52277ZM89.8139 24.4508H92.8139V11.6348H89.8139V24.4508Z" fill="#2196F3"/>
<path d="M103.495 21.6188C103.039 21.9788 102.439 22.1468 101.815 22.1468C100.663 22.1468 100.039 21.4748 100.039 20.2268V14.1308H103.471V11.7308H100.039V8.80278H97.0394V11.7308H94.9274V14.1308H97.0394V20.2988C97.0394 23.1308 98.6474 24.6188 101.455 24.6188C102.535 24.6188 103.615 24.3308 104.335 23.7548L103.495 21.6188Z" fill="#2196F3"/>
<path d="M111.579 11.4908C109.515 11.4908 107.523 12.0188 106.155 13.0748L107.331 15.2588C108.291 14.4668 109.779 13.9868 111.219 13.9868C113.355 13.9868 114.411 15.0188 114.411 16.7708V16.9628H111.099C107.211 16.9628 105.771 18.6428 105.771 20.7788C105.771 23.0108 107.619 24.6188 110.547 24.6188C112.467 24.6188 113.859 23.9948 114.579 22.8908V24.4508H117.411V16.9388C117.411 13.2428 115.275 11.4908 111.579 11.4908ZM111.171 22.4348C109.635 22.4348 108.723 21.7388 108.723 20.6588C108.723 19.7228 109.275 18.9548 111.315 18.9548H114.411V20.4428C113.907 21.7628 112.635 22.4348 111.171 22.4348Z" fill="#2196F3"/>
<path d="M125.101 24.6188C128.701 24.6188 130.909 23.0588 130.909 20.6588C130.909 15.6428 122.989 17.9468 122.989 15.3548C122.989 14.5148 123.853 13.9148 125.677 13.9148C126.901 13.9148 128.125 14.1548 129.349 14.8748L130.501 12.5948C129.349 11.8988 127.405 11.4908 125.701 11.4908C122.245 11.4908 120.061 13.0748 120.061 15.4988C120.061 20.6108 127.981 18.3068 127.981 20.7548C127.981 21.6428 127.189 22.1708 125.293 22.1708C123.685 22.1708 121.957 21.6428 120.829 20.8988L119.677 23.1788C120.829 23.9948 122.965 24.6188 125.101 24.6188Z" fill="#2196F3"/>
<path d="M147.95 24.6908C150.71 24.6908 153.062 23.7068 154.622 21.8828L152.606 19.9628C151.382 21.3068 149.87 21.9548 148.118 21.9548C144.638 21.9548 142.118 19.5068 142.118 16.0508C142.118 12.5948 144.638 10.1468 148.118 10.1468C149.87 10.1468 151.382 10.7948 152.606 12.1148L154.622 10.2188C153.062 8.39477 150.71 7.41077 147.974 7.41077C142.814 7.41077 138.974 11.0348 138.974 16.0508C138.974 21.0668 142.814 24.6908 147.95 24.6908Z" fill="#2196F3"/>
<path d="M157.203 24.4508H160.203V6.64277H157.203V24.4508Z" fill="#2196F3"/>
<path d="M168.917 11.4908C166.853 11.4908 164.861 12.0188 163.493 13.0748L164.669 15.2588C165.629 14.4668 167.117 13.9868 168.557 13.9868C170.693 13.9868 171.749 15.0188 171.749 16.7708V16.9628H168.437C164.549 16.9628 163.109 18.6428 163.109 20.7788C163.109 23.0108 164.957 24.6188 167.885 24.6188C169.805 24.6188 171.197 23.9948 171.917 22.8908V24.4508H174.749V16.9388C174.749 13.2428 172.613 11.4908 168.917 11.4908ZM168.509 22.4348C166.973 22.4348 166.061 21.7388 166.061 20.6588C166.061 19.7228 166.613 18.9548 168.653 18.9548H171.749V20.4428C171.245 21.7628 169.973 22.4348 168.509 22.4348Z" fill="#2196F3"/>
<path d="M185.583 11.4908C183.831 11.4908 182.343 12.0908 181.335 13.3148V11.6348H178.479V29.1068H181.479V22.8908C182.511 24.0668 183.951 24.6188 185.583 24.6188C189.327 24.6188 192.087 22.0268 192.087 18.0428C192.087 14.0828 189.327 11.4908 185.583 11.4908ZM185.247 22.0508C183.087 22.0508 181.431 20.4908 181.431 18.0428C181.431 15.5948 183.087 14.0348 185.247 14.0348C187.407 14.0348 189.039 15.5948 189.039 18.0428C189.039 20.4908 187.407 22.0508 185.247 22.0508Z" fill="#2196F3"/>
</svg>
